<svg xmlns="http://www.w3.org/2000/svg" width="201" height="44" viewBox="0 0 201 44" role="img" aria-label="Resume (PDF)">
<title>Resume (PDF)</title>
<defs><linearGradient id="a" x1="0" y1="0" x2="1" y2="0"><stop offset="0" stop-color="#0086b3"/><stop offset="1" stop-color="#006a8f" stop-opacity="0"/></linearGradient>
<clipPath id="c"><rect x=".5" y=".5" width="200" height="43" rx="10"/></clipPath></defs>
<rect x=".5" y=".5" width="200" height="43" rx="10" fill="#ffffff"/>
<g clip-path="url(#c)"><rect width="44" height="44" fill="#edf1f5"/><path d="M44.5 0V44" stroke="#c6d1dc"/><rect width="120.6" height="1.5" fill="url(#a)"/></g>
<rect x=".5" y=".5" width="200" height="43" rx="10" fill="none" stroke="#c6d1dc"/>
<g transform="translate(22 22)" fill="none" stroke="#0086b3" stroke-width="1.5" stroke-linecap="round" stroke-linejoin="round"><path d="M-5.5 -8 H2 L6 -4 V8 H-5.5 Z M2 -8 V-4 H6"/><path d="M0 -1.5 V5 M-2.8 2.4 L0 5 L2.8 2.4"/></g>
<text x="58" y="27.5" textLength="102.7515" lengthAdjust="spacingAndGlyphs" font-family="'Inter',-apple-system,BlinkMacSystemFont,'Segoe UI',Roboto,Helvetica,Arial,sans-serif" font-size="15" font-weight="600" fill="#0a0f14">Resume (PDF)</text>
<path d="M175 27L184 18M177.5 18H184V24.5" fill="none" stroke="#5b6672" stroke-width="1.6" stroke-linecap="round" stroke-linejoin="round"/>
</svg>
