<svg xmlns="http://www.w3.org/2000/svg" width="96" height="96" viewBox="0 0 96 96" role="img" aria-label="Apache Arrow">
<title>Apache Arrow</title>
<defs>
<linearGradient id="bg-arrow-light" x1="0" y1="0" x2="1" y2="1"><stop offset="0" stop-color="#ffffff"/><stop offset="1" stop-color="#f3f6f9"/></linearGradient>
<radialGradient id="glow-arrow-light" cx="0.5" cy="0.45" r="0.55"><stop offset="0" stop-color="#000000" stop-opacity="0.12"/><stop offset="1" stop-color="#000000" stop-opacity="0"/></radialGradient>
</defs>
<rect x="2" y="2" width="92" height="92" rx="22" fill="url(#bg-arrow-light)"/>
<rect x="2" y="2" width="92" height="92" rx="22" fill="url(#glow-arrow-light)"/>
<rect x="2.5" y="2.5" width="91" height="91" rx="21.5" fill="none" stroke="#d0d7de"/>
<path d="M24 3.5h48" stroke="#ffffff" stroke-opacity="0.9" stroke-linecap="round"/>
<svg x="20.40" y="25.00" width="55.20" height="46.00" viewBox="0.0 2.0 24.000 20.000"><g fill="#000000"><path d="m0 2 10 10L0 22v-4l6-6-6-6zm7 0 10 10L7 22v-4l6-6-6-6zm7 0 10 10-10 10v-4l6-6-6-6z"/></g></svg>
</svg>
