<svg xmlns="http://www.w3.org/2000/svg" width="96" height="96" viewBox="0 0 96 96" role="img" aria-label="Cloudera">
<title>Cloudera</title>
<defs>
<linearGradient id="bg-cloudera-dark" x1="0" y1="0" x2="1" y2="1"><stop offset="0" stop-color="#161b22"/><stop offset="1" stop-color="#0d1117"/></linearGradient>
<radialGradient id="glow-cloudera-dark" cx="0.5" cy="0.45" r="0.55"><stop offset="0" stop-color="#F96702" stop-opacity="0.22"/><stop offset="1" stop-color="#F96702" stop-opacity="0"/></radialGradient>
</defs>
<rect x="2" y="2" width="92" height="92" rx="22" fill="url(#bg-cloudera-dark)"/>
<rect x="2" y="2" width="92" height="92" rx="22" fill="url(#glow-cloudera-dark)"/>
<rect x="2.5" y="2.5" width="91" height="91" rx="21.5" fill="none" stroke="#30363d"/>
<path d="M24 3.5h48" stroke="#ffffff" stroke-opacity="0.07" stroke-linecap="round"/>
<svg x="25.00" y="25.00" width="46.00" height="46.00" viewBox="0.0 0.0 24.000 24.000"><g fill="#F96702"><path d="M12 0C5.373 0 0 5.373 0 12s5.373 12 12 12 12-5.373 12-12S18.627 0 12 0zm.344 20.251a8.25 8.25 0 1 1 0-16.502 8.21 8.21 0 0 1 5.633 2.234L15.519 8.53a4.686 4.686 0 0 0-3.175-1.239 4.709 4.709 0 1 0 3.284 8.081l2.657 2.346a8.224 8.224 0 0 1-5.941 2.533z"/></g></svg>
</svg>
