<svg xmlns="http://www.w3.org/2000/svg" width="96" height="96" viewBox="0 0 96 96" role="img" aria-label="Power BI">
<title>Power BI</title>
<defs>
<linearGradient id="bg-powerbi-dark" x1="0" y1="0" x2="1" y2="1"><stop offset="0" stop-color="#161b22"/><stop offset="1" stop-color="#0d1117"/></linearGradient>
<radialGradient id="glow-powerbi-dark" cx="0.5" cy="0.45" r="0.55"><stop offset="0" stop-color="#F2C811" stop-opacity="0.22"/><stop offset="1" stop-color="#F2C811" stop-opacity="0"/></radialGradient>
</defs>
<rect x="2" y="2" width="92" height="92" rx="22" fill="url(#bg-powerbi-dark)"/>
<rect x="2" y="2" width="92" height="92" rx="22" fill="url(#glow-powerbi-dark)"/>
<rect x="2.5" y="2.5" width="91" height="91" rx="21.5" fill="none" stroke="#30363d"/>
<path d="M24 3.5h48" stroke="#ffffff" stroke-opacity="0.07" stroke-linecap="round"/>
<svg x="30.75" y="25.00" width="34.50" height="46.00" viewBox="3.0 0.0 18.000 24.000"><g fill="#F2C811"><path d="M10 12a1 1 0 0 1 1 1v11H4a1 1 0 0 1-1-1V13a1 1 0 0 1 1-1h6Zm-2-.5V7a1 1 0 0 1 1-1h6a1 1 0 0 1 1 1v17h-4.5V13a1.5 1.5 0 0 0-1.5-1.5H8Zm5-6V1a1 1 0 0 1 1-1h6a1 1 0 0 1 1 1v22a1 1 0 0 1-1 1h-3.5V7A1.5 1.5 0 0 0 15 5.5h-2Z"/></g></svg>
</svg>
